<svg width="904" height="636" viewBox="0 0 904 636" fill="none" xmlns="http://www.w3.org/2000/svg">
<path fill-rule="evenodd" clip-rule="evenodd" d="M903.134 635.977H0.866211V634.677H903.134V635.977Z" fill="#FFCACA"/>
<path fill-rule="evenodd" clip-rule="evenodd" d="M903.134 506.325H0.866211V505.025H903.134V506.325Z" fill="#FFCACA"/>
<path fill-rule="evenodd" clip-rule="evenodd" d="M903.134 376.674H0.866211V375.374H903.134V376.674Z" fill="#FFCACA"/>
<path fill-rule="evenodd" clip-rule="evenodd" d="M903.134 247.022H0.866211V245.722H903.134V247.022Z" fill="#FFCACA"/>
<path fill-rule="evenodd" clip-rule="evenodd" d="M903.134 117.37H0.866211V116.07H903.134V117.37Z" fill="#FFCACA"/>
<path fill-rule="evenodd" clip-rule="evenodd" d="M902.001 0H0V2H902.001V0Z" fill="#FFCACA"/>
<path fill-rule="evenodd" clip-rule="evenodd" d="M112.694 635.327V2H114.139V635.327H112.694Z" fill="#FFCACA"/>
<path fill-rule="evenodd" clip-rule="evenodd" d="M337.798 635.327V2H339.243V635.327H337.798Z" fill="#FFCACA"/>
<path fill-rule="evenodd" clip-rule="evenodd" d="M562.901 635.327V2H564.347V635.327H562.901Z" fill="#FFCACA"/>
<path fill-rule="evenodd" clip-rule="evenodd" d="M788.004 635.327V2H789.45V635.327H788.004Z" fill="#FFCACA"/>
<path fill-rule="evenodd" clip-rule="evenodd" d="M0.142578 635.327V2H1.58771V635.327H0.142578Z" fill="#FFCACA"/>
<path fill-rule="evenodd" clip-rule="evenodd" d="M900.557 635.327V2H902.002V635.327H900.557Z" fill="#FFCACA"/>
</svg>
